<svg width="28" height="27" viewBox="0 0 28 27" fill="none" xmlns="http://www.w3.org/2000/svg">
<path fill-rule="evenodd" clip-rule="evenodd" d="M6.00192 3.56228C6.00192 5.12737 4.81023 6.39397 2.94663 6.39397C1.15564 6.39397 -0.0360477 5.12737 0.000832462 3.56228C-0.0360477 1.92112 1.15561 0.691406 2.98233 0.691406C4.8102 0.691406 5.96619 1.92112 6.00192 3.56228ZM0.150664 26.8612V8.63097H5.81635V26.8601H0.150664V26.8612Z" fill="white"/>
<path fill-rule="evenodd" clip-rule="evenodd" d="M10.3577 14.4493C10.3577 12.1754 10.2828 10.2369 10.2079 8.63374H15.1291L15.3907 11.1312H15.5025C16.2481 9.97526 18.1118 8.22461 21.1313 8.22461C24.8585 8.22461 27.6545 10.6852 27.6545 16.0512V26.864H21.9888V16.7612C21.9888 14.4112 21.1693 12.8092 19.119 12.8092C17.5528 12.8092 16.6216 13.8903 16.2493 14.9333C16.0995 15.3067 16.0257 15.8276 16.0257 16.3509V26.864H10.36V14.4493H10.3577Z" fill="white"/>
</svg>
