<svg width="31" height="26" viewBox="0 0 31 26" fill="none" xmlns="http://www.w3.org/2000/svg">
<path fill-rule="evenodd" clip-rule="evenodd" d="M30.6544 3.65143C29.5515 4.1414 28.3646 4.47137 27.1197 4.62036C28.3906 3.85841 29.3665 2.6525 29.8255 1.21559C28.6376 1.92154 27.3186 2.43251 25.9177 2.7095C24.7948 1.51358 23.1939 0.765625 21.425 0.765625C18.0263 0.765625 15.2704 3.52144 15.2704 6.92021C15.2704 7.40218 15.3254 7.87215 15.4304 8.32312C10.3148 8.06714 5.78008 5.6163 2.74428 1.89255C2.21432 2.80149 1.91134 3.85843 1.91134 4.98635C1.91134 7.12121 2.99626 9.00508 4.64915 10.109C3.63922 10.077 2.69128 9.80003 1.86034 9.33906V9.41605C1.86034 12.3988 3.98319 14.8857 6.79701 15.4526C6.28104 15.5926 5.73708 15.6686 5.17612 15.6686C4.77914 15.6686 4.39317 15.6296 4.01719 15.5576C4.80014 18.0025 7.07399 19.7824 9.76681 19.8324C7.66095 21.4823 5.00713 22.4672 2.12332 22.4672C1.62535 22.4672 1.13539 22.4382 0.654419 22.3802C3.37824 24.1261 6.61302 25.146 10.0888 25.146C21.409 25.146 27.5996 15.7676 27.5996 7.63516C27.5996 7.36818 27.5946 7.10221 27.5816 6.83922C28.7855 5.96928 29.8295 4.88535 30.6544 3.65143Z" fill="white"/>
</svg>
